# xmcd
#
# Track frame offsets:
#	150
#	28525
#	57765
#	76542
#	100170
#	123965
#	149472
#	176185
#	193837
#	211190
#	229350
#	250935
#	266270
#	283880
#	301127
#
# Disc length: 4256
#
# Revision: 3
# Processed by: cddbd v1.5.1PL0 Copyright (c) Steve Scherf et al.
# Submitted via: EasyCDDAExtractor 6.2.0.3
# Normalized: r2:DSETVAR1
#
DISCID=cf109e0f
DTITLE=Various Artist - DJ Hits - Vol. 28
DYEAR=1900
DGENRE=Blues
TTITLE0=Jesica Jay - Casablanca
TTITLE1=On T.V. - Set Me Free
TTITLE2=Unity Loops - Part Of You
TTITLE3=K. Da Cruz - Love Is Lifting Me Higher
TTITLE4=O-Matic - Hand In Hand
TTITLE5=Pharao - World Of Magic
TTITLE6=2 Brothers On The 4th Floor - Fly
TTITLE7=The New London Boys - Gospeltrain To London
TTITLE8=Sparks - When I Kiss You
TTITLE9=Hammer and Deion Sanders - Straight To My Feet
TTITLE10=Michael Jackson - They Don't Care About Us
TTITLE11=Joe Carbonara - Fat Ass Girl
TTITLE12=Apache Indian and Frankie Paul - Raggamuffin Girl
TTITLE13=It's 5 To 12 - Survival Dance
TTITLE14=Ali Campbell and Pamela Starks - That Look In Your Eye
EXTD=
EXTT0=
EXTT1=
EXTT2=
EXTT3=
EXTT4=
EXTT5=
EXTT6=
EXTT7=
EXTT8=
EXTT9=
EXTT10=
EXTT11=
EXTT12=
EXTT13=
EXTT14=
PLAYORDER=
